<svg xmlns="http://www.w3.org/2000/svg" viewBox="0 0 48 62">
    <path d="M 27,3 26,4 22,4 21,5 20,5 19,6 18,6 17,7 16,7 14,9 13,9 10,12 10,13 8,15 8,16 7,17 7,18 6,19 6,20 5,21 5,24 4,25 4,37 5,38 5,41 6,42 6,43 7,44 7,45 8,46 8,47 14,53 15,53 16,54 17,54 18,55 19,55 20,56 24,56 25,57 34,57 35,56 39,56 40,55 42,55 43,54 43,45 42,46 40,46 39,47 37,47 36,48 27,48 26,47 24,47 22,45 21,45 18,42 18,41 16,39 16,37 15,36 15,24 16,23 16,22 17,21 17,20 19,18 19,17 20,16 21,16 23,14 24,14 25,13 27,13 28,12 37,12 38,13 41,13 42,14 43,14 43,5 42,5 41,4 37,4 36,3 Z " fill="#1D87AD"/>
</svg>